<svg transform="scale(1)" version="1.1" id="Layer_1" xmlns="http://www.w3.org/2000/svg" xmlns:xlink="http://www.w3.org/1999/xlink" x="0px" y="0px" viewBox="0 0 500 500" xml:space="preserve" class="show_show__wrapper__graphic__5Waiy "><title>React</title><style type="text/css">
	.st0{fill:#ffffff;}
	.st1{fill:#FFFFFF;}
	.st2{fill:none;}
	.st3{fill:#FFD700;}
</style><g id="black_cloud"><path class="st0" d="M459.5,338.7c-0.7-0.3-1.5-0.6-2.3-0.8c3.8-11-1.5-23.1-12.2-27.6c-3.1-1.3-6.4-1.9-9.8-1.8
		c-0.1-7.1-6-12.8-13.2-12.7c-0.7,0-1.4,0.1-2,0.2c-3.1-16.6-19.1-27.6-35.7-24.5c-6.6,1.2-12.5,4.6-17,9.5l-17.3,0.5
		c-10-5.8-22.5-5.5-32.2,0.9l-7.8,0.2c-7.3-5.7-17.7-5.4-24.7,0.7l-31.2,0.9l-31.2-0.8c-7-6.1-17.4-6.4-24.7-0.7l-7.8-0.2
		c-9.7-6.4-22.1-6.7-32.2-0.9L141,281c-11.4-12.5-30.7-13.4-43.2-2c-4.9,4.5-8.3,10.5-9.5,17c-7-1.2-13.7,3.5-15,10.5
		c-0.1,0.7-0.2,1.3-0.2,2c-3.3-0.2-6.7,0.4-9.8,1.8c-10.7,4.6-16,16.6-12.2,27.6c-0.8,0.2-1.5,0.4-2.3,0.8
		c-7.2,3.1-10.5,11.3-7.5,18.5c0,0,0,0,0,0h425.5C470,350,466.6,341.7,459.5,338.7z"></path><path class="st0" d="M466.9,358H41.5c-0.3,0-0.6-0.2-0.7-0.5c-3.2-7.5,0.3-16.3,7.8-19.5c0,0,0,0,0,0c0.5-0.2,1.1-0.4,1.6-0.6
		c-3.7-12.1,3-24.9,15.1-28.6c2.3-0.7,4.7-1.1,7.1-1c0.6-7.5,7.1-13.2,14.6-12.6c0.2,0,0.5,0,0.7,0.1c3.6-16.9,20.2-27.8,37.2-24.2
		c6.3,1.3,12.1,4.6,16.5,9.3l16.8,0.5c10.2-5.8,22.7-5.4,32.6,0.9l7.4,0.2c7.5-5.7,18-5.4,25.2,0.7l30.9,0.8l30.9-0.8
		c7.2-6.1,17.7-6.4,25.2-0.7l7.4-0.2c9.8-6.3,22.4-6.7,32.6-0.9l16.8-0.5c11.8-12.7,31.6-13.4,44.3-1.6c4.7,4.4,8,10.1,9.3,16.5
		c2.4-0.3,4.8,0.1,7,1c4.7,2,8,6.5,8.4,11.6c12.6-0.2,23,9.9,23.2,22.6c0,2.4-0.3,4.8-1,7.1c0.5,0.2,1.1,0.4,1.6,0.6
		c7.6,3.2,11.1,11.9,7.9,19.5c0,0,0,0,0,0C467.6,357.8,467.3,358,466.9,358z M41.9,356.5h424.5c2.6-6.7-0.6-14.3-7.2-17.1l0,0
		c-0.7-0.3-1.4-0.5-2.1-0.7c-0.4-0.1-0.7-0.5-0.6-0.9c0,0,0-0.1,0-0.1c3.9-11.2-2-23.3-13.2-27.2c-2.6-0.9-5.3-1.3-8-1.2
		c-0.2,0-0.4-0.1-0.5-0.2c-0.1-0.1-0.2-0.3-0.2-0.5c-0.1-6.7-5.7-12.1-12.4-12c-0.6,0-1.3,0.1-1.9,0.2c-0.4,0.1-0.8-0.2-0.9-0.6
		c0,0,0,0,0,0c-3-16.2-18.6-26.9-34.9-23.8c-6.4,1.2-12.2,4.4-16.6,9.2c-0.1,0.2-0.3,0.2-0.5,0.2l-17.3,0.5c-0.1,0-0.3,0-0.4-0.1
		c-9.8-5.6-21.9-5.3-31.4,0.9c-0.1,0.1-0.3,0.1-0.4,0.1l-7.8,0.2c-0.2,0-0.3-0.1-0.5-0.2c-7.1-5.5-17-5.2-23.7,0.6
		c-0.1,0.1-0.3,0.2-0.5,0.2l-31.2,0.9L223,284c-0.2,0-0.3-0.1-0.5-0.2c-6.8-5.8-16.7-6.1-23.7-0.6c-0.1,0.1-0.3,0.2-0.5,0.2
		l-7.8-0.2c-0.1,0-0.3,0-0.4-0.1c-9.5-6.2-21.6-6.5-31.4-0.9c-0.1,0.1-0.3,0.1-0.4,0.1l-17.3-0.4c-0.2,0-0.4-0.1-0.5-0.2
		c-11.1-12.2-30-13.1-42.2-2c-4.8,4.4-8,10.2-9.2,16.6c-0.1,0.4-0.5,0.7-0.9,0.6c-6.6-1.2-12.9,3.2-14.1,9.9
		c-0.1,0.6-0.2,1.3-0.2,1.9c0,0.2-0.1,0.4-0.2,0.5c-0.1,0.1-0.3,0.2-0.6,0.2c-11.8-0.6-21.8,8.6-22.4,20.4c-0.1,2.7,0.3,5.5,1.2,8
		c0.1,0.2,0.1,0.4,0,0.6c-0.1,0.2-0.3,0.3-0.5,0.4c-0.7,0.2-1.5,0.4-2.2,0.7C42.6,342.2,39.4,349.7,41.9,356.5L41.9,356.5z"></path></g><g id="archive"><polygon class="st0" points="354.3,183.1 315.3,186.2 318.1,360 346.6,360 	"></polygon><path class="st0" d="M346.6,360.7h-28.6c-0.4,0-0.7-0.3-0.8-0.7l-2.8-173.7c0-0.4,0.3-0.7,0.7-0.8l39-3.1c0.2,0,0.4,0.1,0.6,0.2
		c0.2,0.1,0.2,0.4,0.2,0.6L347.4,360C347.3,360.4,347,360.7,346.6,360.7z M318.8,359.2h27.1l7.6-175.3l-37.5,3L318.8,359.2z"></path><polygon class="st1" points="354.3,183.1 423,195.9 402.3,360 346.6,360 	"></polygon><path class="st0" d="M402.3,360.7h-55.7c-0.2,0-0.4-0.1-0.5-0.2c-0.1-0.1-0.2-0.3-0.2-0.5l7.7-176.8c0-0.2,0.1-0.4,0.3-0.6
		c0.2-0.1,0.4-0.2,0.6-0.2l68.7,12.8c0.4,0.1,0.7,0.4,0.6,0.8L403,360C403,360.4,402.7,360.7,402.3,360.7z M347.4,359.2h54.2
		l20.5-162.7L355,184L347.4,359.2z"></path><path class="st0" d="M416.3,249.6h-0.1L351,241c-0.4-0.1-0.7-0.4-0.6-0.8c0.1-0.4,0.4-0.7,0.8-0.6l65.2,8.6c0.4,0,0.7,0.4,0.7,0.8
		C417.1,249.4,416.7,249.7,416.3,249.6L416.3,249.6L416.3,249.6z"></path><path class="st0" d="M409.1,307.6L409.1,307.6l-59.4-3.8c-0.4,0-0.7-0.4-0.7-0.8c0-0.4,0.4-0.7,0.8-0.7l59.3,3.8
		c0.4,0,0.7,0.4,0.7,0.8S409.6,307.6,409.1,307.6L409.1,307.6z"></path><circle class="st1" cx="390.3" cy="218.3" r="5"></circle><path class="st0" d="M390.3,224.1c-3.2,0-5.8-2.6-5.8-5.8c0-3.2,2.6-5.8,5.8-5.8c2.9,0,5.4,2.2,5.7,5.1l0,0c0.3,3.2-1.9,6-5.1,6.3
		c0,0,0,0,0,0C390.7,224.1,390.5,224.1,390.3,224.1z M390.3,214.1h-0.5c-2.3,0.3-4,2.4-3.8,4.7c0.1,1.1,0.7,2.2,1.6,2.9
		c1.8,1.5,4.5,1.2,6-0.6c0,0,0,0,0,0c0.7-0.9,1-2,0.9-3.1l0,0C394.3,215.7,392.4,214.1,390.3,214.1L390.3,214.1z"></path><circle class="st1" cx="393.5" cy="218" r="6.3"></circle><path class="st0" d="M393.5,225c-3.9,0-7-3.2-7-7c0-3.9,3.2-7,7-7c3.5,0,6.5,2.7,6.9,6.2l0,0c0.4,3.8-2.3,7.3-6.2,7.7c0,0,0,0,0,0
		C394,225,393.8,225,393.5,225z M393.5,212.5c-0.2,0-0.4,0-0.6,0c-3,0.3-5.2,3.1-4.9,6.1c0.3,3,3.1,5.2,6.1,4.9c3-0.3,5.2-3,4.9-6.1
		l0,0C398.7,214.6,396.3,212.5,393.5,212.5L393.5,212.5z"></path><circle class="st1" cx="384" cy="276.7" r="5"></circle><path class="st0" d="M384,282.5c-0.2,0-0.4,0-0.6,0c-3.2-0.3-5.5-3.1-5.2-6.2c0,0,0,0,0,0c0.3-3.2,3.1-5.5,6.3-5.2s5.5,3.1,5.2,6.3
		c-0.1,1.5-0.9,2.9-2.1,3.9C386.6,282.1,385.3,282.5,384,282.5z M384,272.5c-2.4,0-4.3,1.9-4.2,4.3c0,2.2,1.7,4,3.8,4.2
		c2.3,0.2,4.4-1.5,4.6-3.8c0,0,0,0,0,0c0.2-2.3-1.5-4.4-3.8-4.6c0,0,0,0,0,0C384.3,272.5,384.1,272.5,384,272.5L384,272.5z"></path><circle class="st1" cx="387.3" cy="277" r="6.3"></circle><path class="st0" d="M387.3,284.1c-0.2,0-0.4,0-0.7,0c-3.9-0.2-6.8-3.5-6.7-7.3c0.2-3.9,3.5-6.8,7.3-6.7s6.8,3.5,6.7,7.3
		C393.8,281,390.9,283.9,387.3,284.1z M387.3,271.5c-3,0.1-5.3,2.7-5.1,5.6c0.1,3,2.7,5.3,5.6,5.1c3-0.1,5.3-2.7,5.1-5.6
		c-0.1-2.8-2.3-5-5.1-5.1C387.6,271.5,387.4,271.5,387.3,271.5L387.3,271.5z"></path><circle class="st1" cx="380.4" cy="332.4" r="5"></circle><path class="st0" d="M380.4,338.2c-0.2,0-0.4,0-0.5,0c-3.2-0.3-5.5-3.1-5.2-6.3c0.4-3.2,3.3-5.4,6.5-4.9c3,0.4,5.2,3,5,6l0,0
		C385.8,335.9,383.4,338.2,380.4,338.2L380.4,338.2z M380.4,328.2c-2.2,0-4,1.7-4.2,3.9c-0.1,1.1,0.3,2.3,1,3.1
		c1.5,1.8,4.2,2.1,6,0.6c1.8-1.5,2.1-4.2,0.6-6c-0.7-0.9-1.8-1.4-2.9-1.5C380.7,328.2,380.5,328.1,380.4,328.2L380.4,328.2z
		 M385.4,332.9L385.4,332.9z"></path><circle class="st1" cx="383.6" cy="332.7" r="6.3"></circle><path class="st0" d="M383.6,339.7H383c-3.9-0.2-6.8-3.5-6.7-7.3c0.2-3.9,3.5-6.8,7.3-6.7c3.9,0.2,6.8,3.5,6.7,7.3
		C390.1,336.7,387.3,339.5,383.6,339.7z M383.6,327.2c-3,0-5.5,2.5-5.5,5.5c0,3,2.5,5.5,5.5,5.5c2.8,0,5.2-2.2,5.5-5
		c0.3-3-2-5.7-5-6c0,0,0,0,0,0C384,327.2,383.8,327.2,383.6,327.2L383.6,327.2z"></path><line class="st2" x1="379.1" y1="199.7" x2="404.4" y2="204.4"></line><path class="st0" d="M404.5,205.2h-0.1l-25.3-4.7c-0.4,0-0.7-0.4-0.7-0.8c0-0.4,0.4-0.7,0.8-0.7c0,0,0.1,0,0.1,0l25.3,4.7
		c0.4,0.1,0.7,0.5,0.6,0.9C405.1,204.9,404.8,205.2,404.5,205.2L404.5,205.2z"></path><line class="st2" x1="378" y1="257.8" x2="397.6" y2="259"></line><path class="st0" d="M397.6,259.8L397.6,259.8l-19.7-1.3c-0.4,0-0.7-0.4-0.7-0.8c0,0,0,0,0,0c0-0.4,0.4-0.7,0.8-0.7l19.6,1.3
		c0.4,0,0.7,0.4,0.7,0.8C398.3,259.5,398,259.8,397.6,259.8z"></path><line class="st2" x1="373.3" y1="313.6" x2="392.9" y2="314.9"></line><path class="st0" d="M392.9,315.7L392.9,315.7l-19.7-1.3c-0.4,0-0.7-0.4-0.7-0.8c0,0,0,0,0,0c0-0.4,0.4-0.7,0.8-0.7c0,0,0,0,0,0
		l19.6,1.3c0.4,0,0.7,0.4,0.7,0.8c0,0,0,0,0,0C393.7,315.4,393.3,315.7,392.9,315.7z"></path><polygon class="st0" points="171.7,183.1 210.7,186.2 207.9,360 179.4,360 	"></polygon><path class="st0" d="M208,360.7h-28.6c-0.4,0-0.7-0.3-0.8-0.7l-7.7-176.8c0-0.4,0.3-0.8,0.7-0.8c0,0,0,0,0.1,0l39,3.1
		c0.4,0,0.7,0.4,0.7,0.8L208.7,360C208.7,360.4,208.4,360.7,208,360.7z M180.1,359.2h27.1l2.7-172.3l-37.5-3L180.1,359.2z"></path><polygon class="st1" points="171.7,183.1 103,195.9 109.7,248.9 103.1,250 108.7,307.5 116.9,306.8 123.7,360 179.4,360 	"></polygon><path class="st0" d="M179.4,360.7h-55.7c-0.4,0-0.7-0.3-0.7-0.7l-6.7-52.4l-7.5,0.6c-0.4,0-0.8-0.3-0.8-0.7c0,0,0,0,0,0l-5.5-57.5
		c0-0.4,0.2-0.7,0.6-0.8l5.9-1l-6.6-52.2c-0.1-0.4,0.2-0.8,0.6-0.8l68.7-12.8c0.4-0.1,0.8,0.2,0.9,0.6c0,0,0,0.1,0,0.1l7.7,176.8
		c0,0.2-0.1,0.4-0.2,0.5C179.8,360.6,179.6,360.7,179.4,360.7z M124.4,359.2h54.2L171,184l-67.1,12.5l6.6,52.3
		c0,0.4-0.2,0.8-0.6,0.8l-5.9,1l5.4,56.1l7.5-0.6c0.4,0,0.7,0.3,0.8,0.6L124.4,359.2z"></path><path class="st0" d="M109.7,249.6c-0.4,0-0.6-0.3-0.7-0.6c-0.1-0.4,0.2-0.8,0.7-0.9l65.2-8.6c0.4-0.1,0.8,0.2,0.8,0.6c0,0,0,0,0,0
		c0.1,0.4-0.2,0.8-0.6,0.8c0,0,0,0,0,0l-65.2,8.6L109.7,249.6z"></path><path class="st0" d="M116.9,307.6c-0.4,0-0.8-0.3-0.8-0.8s0.3-0.8,0.8-0.8l59.3-3.8c0.4,0,0.8,0.3,0.8,0.7c0,0.4-0.3,0.8-0.7,0.8
		L116.9,307.6L116.9,307.6z"></path><circle class="st1" cx="135.7" cy="218.3" r="5"></circle><path class="st0" d="M135.7,224.1c-0.2,0-0.4,0-0.6,0c-3.2-0.3-5.5-3.2-5.1-6.4c0.2-1.5,0.9-2.9,2.1-3.9c2.5-2,6.1-1.6,8.1,0.9
		c2,2.5,1.6,6.1-0.9,8.1C138.3,223.7,137,224.1,135.7,224.1L135.7,224.1z M135.7,214.1c-2.2,0-4,1.6-4.2,3.8l0,0
		c-0.1,1.1,0.2,2.3,0.9,3.1c1.5,1.8,4.1,2.1,6,0.7c0,0,0,0,0,0c1.8-1.5,2.1-4.2,0.6-6c-0.7-0.9-1.7-1.4-2.8-1.6L135.7,214.1z
		 M130.7,217.8L130.7,217.8z"></path><circle class="st1" cx="132.5" cy="218" r="6.3"></circle><path class="st0" d="M132.5,225c-0.3,0-0.5,0-0.8-0.1c-3.8-0.4-6.6-3.9-6.2-7.7c0,0,0,0,0,0l0,0c0.4-3.8,3.9-6.6,7.7-6.2
		c3.8,0.4,6.6,3.9,6.2,7.7C139,222.3,136.1,225,132.5,225L132.5,225z M127,217.4c-0.3,3,1.9,5.7,4.9,6.1s5.7-1.9,6.1-4.9
		c0.2-1.5-0.3-2.9-1.2-4c-1.9-2.4-5.4-2.7-7.7-0.8C127.9,214.6,127.2,215.9,127,217.4z"></path><circle class="st1" cx="135.9" cy="277.7" r="5"></circle><path class="st0" d="M135.9,283.4c-3,0-5.4-2.3-5.7-5.2l0,0c-0.3-3.2,2-6,5.2-6.3c3.2-0.3,6,2,6.3,5.2s-2,6-5.2,6.3c0,0,0,0,0,0
		C136.3,283.4,136.1,283.4,135.9,283.4z M135.9,273.4c-0.1,0-0.3,0-0.4,0c-2.3,0.2-4.1,2.3-3.8,4.6l0,0c0.2,2.3,2.3,4.1,4.6,3.8
		c2.3-0.2,4.1-2.3,3.8-4.6C140,275.1,138.1,273.4,135.9,273.4L135.9,273.4z"></path><ellipse class="st1" transform="matrix(7.088909e-02 -0.9975 0.9975 7.088909e-02 -153.9969 390.6304)" cx="132.7" cy="278" rx="6.3" ry="6.3"></ellipse><path class="st0" d="M132.7,285c-3.9-0.2-6.8-3.5-6.7-7.3c0.2-3.9,3.5-6.8,7.3-6.7c3.9,0.2,6.8,3.5,6.7,7.3
		c-0.2,3.6-3.1,6.5-6.7,6.7H132.7z M132.7,272.5c-0.2,0-0.4,0-0.5,0c-3.1,0.1-5.5,2.8-5.4,5.9s2.8,5.5,5.9,5.4s5.5-2.8,5.4-5.9
		C137.9,274.9,135.6,272.6,132.7,272.5z"></path><circle class="st1" cx="145.6" cy="332.4" r="5"></circle><path class="st0" d="M145.6,338.2c-3,0-5.4-2.3-5.7-5.2l0,0c-0.3-3.2,2-6,5.2-6.3c3.2-0.3,6,2,6.3,5.2c0.1,1.5-0.3,3-1.3,4.2
		c-1,1.2-2.4,1.9-3.9,2.1C146,338.1,145.8,338.2,145.6,338.2z M141.4,332.8c0.2,2.3,2.3,4.1,4.6,3.8s4.1-2.3,3.8-4.6
		s-2.3-4.1-4.6-3.8c0,0,0,0,0,0C142.9,328.4,141.2,330.4,141.4,332.8C141.4,332.8,141.4,332.8,141.4,332.8z"></path><circle class="st1" cx="142.4" cy="332.7" r="6.3"></circle><path class="st0" d="M142.4,339.7c-3.9-0.2-6.8-3.5-6.7-7.3c0.2-3.9,3.5-6.8,7.3-6.7c3.9,0.2,6.8,3.5,6.7,7.3
		c-0.2,3.6-3.1,6.5-6.7,6.7H142.4z M142.4,327.2c-0.2,0-0.4,0-0.5,0c-3,0.3-5.3,3-5,6c0,0,0,0,0,0l0,0c0.3,3,3,5.3,6,5c0,0,0,0,0,0
		c3-0.3,5.3-3,5-6c-0.1-1.5-0.8-2.8-2-3.7C144.9,327.7,143.6,327.2,142.4,327.2L142.4,327.2z"></path><line class="st2" x1="146.9" y1="199.7" x2="121.6" y2="204.4"></line><path class="st0" d="M121.6,205.2c-0.4,0-0.7-0.3-0.7-0.6c-0.1-0.4,0.2-0.8,0.6-0.9c0,0,0,0,0,0l25.3-4.7c0.4-0.1,0.8,0.2,0.9,0.6
		c0.1,0.4-0.2,0.8-0.6,0.9l-25.3,4.7L121.6,205.2z"></path><line class="st2" x1="148" y1="257.8" x2="128.1" y2="260.1"></line><path class="st0" d="M128.1,260.9c-0.4,0-0.8-0.3-0.8-0.7c0-0.4,0.3-0.8,0.7-0.8l19.9-2.4c0.4-0.1,0.8,0.2,0.8,0.6c0,0,0,0,0,0
		c0,0.4-0.2,0.8-0.7,0.8L128.1,260.9L128.1,260.9z"></path><line class="st2" x1="152.7" y1="313.6" x2="133.1" y2="314.9"></line><path class="st0" d="M133.1,315.7c-0.4,0-0.7-0.3-0.8-0.7c0-0.4,0.3-0.8,0.7-0.8c0,0,0,0,0,0l19.6-1.3c0.4,0,0.8,0.3,0.8,0.7
		c0,0.4-0.3,0.8-0.7,0.8c0,0,0,0,0,0L133.1,315.7L133.1,315.7z"></path><polygon class="st0" points="177.8,240.3 168.3,241.1 171.7,303.3 179.3,303 	"></polygon><path class="st0" d="M171.7,304c-0.4,0-0.7-0.3-0.8-0.7l-3.4-62.1c0-0.4,0.3-0.7,0.7-0.8l9.5-0.9c0.2,0,0.4,0.1,0.6,0.2
		c0.2,0.1,0.2,0.3,0.2,0.5l1.6,62.8c0,0.4-0.3,0.8-0.7,0.8L171.7,304L171.7,304z M169.1,241.8l3.3,60.7l6.2-0.2l-1.6-61.2
		L169.1,241.8z"></path></g><g id="folder"><polygon class="st3" points="318.1,360 208.2,360 199.4,163.9 326.8,163.9 	"></polygon><path class="st1" d="M194.1,194.3c0,0,5.8,11.1,6.1,14.2s128.6,3.8,128.6,3.8l4.8-9.1C333.6,203.3,230.5,197.8,194.1,194.3z"></path><path class="st0" d="M328.8,213.1L328.8,213.1c-0.3,0-32.5-0.2-64.2-0.8c-64.9-1.1-65-2.6-65.1-3.8c-0.2-2.4-4.4-10.9-6-13.9
		c-0.1-0.2-0.1-0.5,0-0.8c0.2-0.2,0.4-0.4,0.7-0.3c36,3.4,138.5,8.9,139.5,9c0.3,0,0.5,0.2,0.6,0.4c0.1,0.2,0.1,0.5,0,0.7l-4.8,9.1
		C329.3,213,329,213.1,328.8,213.1z M200.9,208.1c5.1,2.1,78.5,3.2,127.4,3.5l4.1-7.6c-11.4-0.6-102-5.5-137-8.8
		C196.9,198.1,200.4,205.3,200.9,208.1L200.9,208.1z"></path><path class="st1" d="M199.1,216.5c0,0-0.9-13.7-11.4-17.5l147.1,7.8c0,0-2.8,7.1-5.1,9.4S199.1,216.5,199.1,216.5z"></path><path class="st0" d="M289.5,218.1c-7.3,0-15.9,0-26-0.1c-32-0.2-64.1-0.7-64.4-0.7c-0.4,0-0.7-0.3-0.7-0.7
		c0-0.1-0.9-13.2-10.9-16.8c-0.4-0.1-0.6-0.5-0.5-0.9c0.1-0.4,0.4-0.6,0.8-0.6l147.1,7.8c0.2,0,0.5,0.1,0.6,0.4
		c0.1,0.2,0.2,0.5,0.1,0.7c-0.1,0.3-2.9,7.3-5.3,9.6C329.7,217.2,328.9,218.1,289.5,218.1z M199.8,215.8
		c50.2,0.8,125.5,1.4,129.4-0.1c1.6-1.7,3.6-6.1,4.5-8.1L191.2,200C198,204.4,199.5,213.2,199.8,215.8z"></path><polygon class="st1" points="196.2,227.5 191.5,206.6 224.8,206.6 229.1,212.9 334.5,212.9 328.9,228.7 	"></polygon><path class="st0" d="M328.9,229.5L328.9,229.5l-132.7-1.3c-0.3,0-0.6-0.3-0.7-0.6l-4.7-20.9c-0.1-0.4,0.2-0.8,0.6-0.9
		c0.1,0,0.1,0,0.2,0h33.3c0.3,0,0.5,0.1,0.6,0.3l4,6.1h105c0.4,0,0.8,0.4,0.7,0.8c0,0.1,0,0.2,0,0.2l-5.5,15.8
		C329.5,229.3,329.2,229.5,328.9,229.5z M196.8,226.7l131.6,1.3l5-14.3H229.1c-0.2,0-0.5-0.1-0.6-0.3l-4.1-6.1h-31.9L196.8,226.7z"></path><polygon class="st3" points="334.2,299.8 192,299.8 186.4,220.1 339.8,220.1 	"></polygon><path class="st0" d="M334.2,300.5H192c-0.4,0-0.7-0.3-0.8-0.7l-5.6-79.6c0-0.2,0.1-0.4,0.2-0.6c0.1-0.2,0.3-0.2,0.6-0.2h153.4
		c0.2,0,0.4,0.1,0.5,0.2c0.1,0.2,0.2,0.4,0.2,0.6l-5.6,79.6C335,300.3,334.6,300.6,334.2,300.5z M192.7,299h140.8l5.5-78.2H187.2
		L192.7,299z"></path><rect class="st1" x="243.9" y="175" width="38.4" height="8.1"></rect><path class="st0" d="M282.3,183.9h-38.4c-0.4,0-0.7-0.3-0.8-0.7c0,0,0,0,0,0V175c0-0.4,0.3-0.8,0.8-0.8h38.4c0.4,0,0.7,0.3,0.8,0.8
		v8.1C283.1,183.5,282.8,183.8,282.3,183.9C282.3,183.9,282.3,183.9,282.3,183.9z M244.7,182.4h36.9v-6.6h-36.9V182.4z"></path><rect class="st1" x="243.9" y="305.2" width="38.4" height="8.1"></rect><path class="st0" d="M282.3,314.1h-38.4c-0.4,0-0.7-0.3-0.8-0.7c0,0,0,0,0,0v-8.1c0-0.4,0.3-0.8,0.8-0.8h38.4
		c0.4,0,0.7,0.3,0.8,0.8v8.1C283.1,313.7,282.7,314.1,282.3,314.1z M244.7,312.6h36.9V306h-36.9V312.6z"></path><rect class="st1" x="239.1" y="233.8" width="48.1" height="8.1"></rect><path class="st0" d="M287.1,242.7h-48.1c-0.4,0-0.7-0.3-0.8-0.7c0,0,0,0,0,0v-8.1c0-0.4,0.3-0.7,0.7-0.8c0,0,0,0,0,0h48.1
		c0.4,0,0.8,0.3,0.8,0.8v8.1C287.9,242.3,287.6,242.7,287.1,242.7z M239.8,241.2h46.6v-6.6h-46.6L239.8,241.2z"></path><path class="st0" d="M271.2,196.2h-17.8c-0.4,0-0.8-0.3-0.8-0.8s0.3-0.8,0.8-0.8h17.8c0.4,0,0.8,0.3,0.8,0.8
		S271.6,196.2,271.2,196.2L271.2,196.2z"></path><path class="st0" d="M298.6,256.4H226c-0.4,0-0.8-0.3-0.8-0.8s0.3-0.8,0.8-0.8h72.7c0.4,0,0.8,0.3,0.8,0.8S299.1,256.4,298.6,256.4
		L298.6,256.4z"></path><path class="st0" d="M271.2,325.2h-17.8c-0.4,0-0.8-0.3-0.8-0.8s0.3-0.8,0.8-0.8h17.8c0.4,0,0.8,0.3,0.8,0.8
		S271.6,325.2,271.2,325.2L271.2,325.2z"></path><circle class="st0" cx="262.3" cy="277" r="5.4"></circle><path class="st0" d="M262.3,283.1c-3.4,0-6.1-2.7-6.1-6.1s2.7-6.1,6.1-6.1s6.1,2.7,6.1,6.1c0,0,0,0,0,0
		C268.4,280.3,265.7,283.1,262.3,283.1z M262.3,272.3c-2.6,0-4.6,2.1-4.6,4.6s2.1,4.6,4.6,4.6c2.6,0,4.6-2.1,4.6-4.6c0,0,0,0,0,0
		C266.9,274.4,264.8,272.3,262.3,272.3z"></path><circle class="st1" cx="262.3" cy="273.6" r="6.3"></circle><path class="st0" d="M262.3,280.6c-3.9,0-7-3.1-7-7s3.1-7,7-7s7,3.1,7,7S266.2,280.6,262.3,280.6z M262.3,268.1
		c-3,0-5.5,2.5-5.5,5.5c0,3,2.5,5.5,5.5,5.5c3,0,5.5-2.5,5.5-5.5S265.3,268.1,262.3,268.1C262.3,268.1,262.3,268.1,262.3,268.1z"></path><path class="st0" d="M282.3,238.6h-38.4c-3.5,0-5.2-3-5.6-4.6c-0.1-0.4,0.2-0.8,0.6-0.9c0.4-0.1,0.7,0.1,0.8,0.5
		c0,0.2,1,3.5,4.1,3.5h38.4c3.2,0,4.1-3.3,4.1-3.5c0.1-0.4,0.6-0.6,0.9-0.5c0.4,0.1,0.6,0.5,0.5,0.8
		C287.5,235.6,285.8,238.6,282.3,238.6z"></path><path class="st0" d="M278.5,179.4h-30.7c-2.2-0.1-4.1-1.6-4.6-3.8c-0.1-0.4,0.1-0.8,0.5-0.9c0.4-0.1,0.8,0.1,0.9,0.5c0,0,0,0,0,0
		l0,0c0,0.1,0.7,2.7,3.1,2.7h30.7c2.4,0,3.1-2.6,3.1-2.7c0.1-0.4,0.6-0.6,0.9-0.5c0.4,0.1,0.6,0.5,0.5,0.8
		C282.5,177.8,280.7,179.3,278.5,179.4z"></path><path class="st0" d="M278.5,310h-30.7c-2.2-0.1-4.1-1.6-4.6-3.8c-0.1-0.4,0.1-0.8,0.5-0.9c0.4-0.1,0.8,0.1,0.9,0.5c0,0,0,0,0,0l0,0
		c0,0.1,0.7,2.7,3.1,2.7h30.7c2.4,0,3.1-2.5,3.1-2.7c0.1-0.4,0.5-0.6,0.9-0.5c0.4,0.1,0.6,0.5,0.5,0.9c0,0,0,0,0,0
		C282.5,308.4,280.7,309.9,278.5,310z"></path></g><g id="back_cloud"><path class="st1" d="M368.4,353.2c0,5.7-2.8,11.1-7.6,14.3c-0.6,0.4-1.3,0.6-2.1,0.6l-86.5,0.5c-1.4,0-2.7-0.8-3.3-2
		c-1.1-2.1-1.7-4.5-1.7-6.9c-0.1-8.4,6.7-15.2,15.1-15.3c3,0,5.9,0.8,8.3,2.4c2-6.2,7.7-10.4,14.2-10.5c0.2-12.8,10.7-23,23.5-22.8
		c12.4,0.2,22.5,10.1,22.8,22.5C360.6,336,368.3,343.7,368.4,353.2C368.4,353.2,368.4,353.2,368.4,353.2z"></path><path class="st0" d="M272.3,369.3c-1.7,0-3.2-0.9-4-2.4c-4.1-7.8-1-17.4,6.7-21.4c2.3-1.2,4.8-1.8,7.3-1.8h0.1
		c2.7,0,5.4,0.7,7.8,2.1c2.2-5.8,7.7-9.8,13.9-10.1c0.4-13.2,11.4-23.6,24.6-23.2c12.5,0.4,22.6,10.4,23.2,22.9
		c9.6,0.4,17.2,8.2,17.3,17.8l0,0c0,6-2.9,11.6-7.9,14.9c-0.7,0.5-1.6,0.8-2.5,0.8L272.3,369.3L272.3,369.3z M282.4,345.1
		L282.4,345.1c-8,0-14.5,6.5-14.4,14.4c0,2.3,0.6,4.6,1.6,6.6c0.5,1,1.5,1.6,2.6,1.6l0,0l86.5-0.5c0.6,0,1.2-0.2,1.6-0.5
		c4.5-3.1,7.3-8.2,7.2-13.7l0,0c-0.1-9-7.4-16.3-16.4-16.3h-0.1c-0.2,0-0.4-0.1-0.5-0.2c-0.1-0.1-0.2-0.3-0.2-0.5
		c-0.1-12.3-10-22.2-22.3-22.2h-0.1c-12.4,0.1-22.3,10.1-22.2,22.5c0,0.4-0.3,0.8-0.7,0.8c0,0,0,0,0,0c-6.2,0-11.7,4.1-13.5,10
		c-0.1,0.2-0.2,0.4-0.5,0.5c-0.2,0.1-0.5,0.1-0.7-0.1C287.9,346,285.2,345.2,282.4,345.1z"></path><path class="st1" d="M208.3,340.1c-2.7,0-5.3,0.8-7.6,2.2c2.3-5.8-0.5-12.3-6.2-14.7c-3.8-1.5-8.1-0.9-11.3,1.7
		c-1.4-9.8-10.5-16.6-20.3-15.2c-8.8,1.3-15.4,8.8-15.4,17.7c0,0.5,0,1,0.1,1.5c-7.7-1.6-15.2,3.3-16.8,11c-0.1,0.4-0.2,0.8-0.2,1.3
		c-6.2-2.5-13.3,0.5-15.8,6.7c-2.5,6.2,0.5,13.3,6.7,15.8c1.4,0.6,3,0.9,4.5,0.9h82.3c7.9,0.2,14.6-6.1,14.8-14s-6.1-14.6-14-14.8
		C208.8,340.1,208.5,340.1,208.3,340.1L208.3,340.1z"></path><path class="st0" d="M208.3,369.7H126c-7.1,0-12.9-5.7-12.9-12.8c0-7.1,5.7-12.9,12.8-12.9c1.3,0,2.7,0.2,3.9,0.6
		c1.4-7.9,8.9-13.3,16.8-12.2c0-0.2,0-0.4,0-0.6c0-10.3,8.3-18.7,18.6-18.7c8.9,0,16.6,6.2,18.4,14.9c5.6-3.6,13-2,16.6,3.6
		c1.3,1.9,1.9,4.2,1.9,6.5c0,0.9-0.1,1.8-0.3,2.7c7.6-3.5,16.6-0.2,20.1,7.3c3.5,7.6,0.2,16.6-7.3,20.1
		C212.7,369.2,210.5,369.7,208.3,369.7L208.3,369.7z M126,345.5c-6.3,0.2-11.2,5.4-11,11.7c0.2,6,5,10.8,11,11h82.3
		c7.5,0,13.7-6,13.7-13.6s-6-13.7-13.6-13.7c-2.6,0-5.2,0.7-7.4,2.1c-0.3,0.2-0.6,0.1-0.9-0.1c-0.3-0.2-0.3-0.6-0.2-0.9
		c0.5-1.3,0.8-2.6,0.8-4c0-5.8-4.7-10.5-10.5-10.5c-2.4,0-4.7,0.8-6.6,2.3c-0.2,0.2-0.5,0.2-0.7,0.1c-0.3-0.1-0.4-0.3-0.5-0.6
		c-1.3-9.4-10-15.9-19.4-14.6c-8.5,1.2-14.8,8.4-14.8,17c0,0.5,0,1,0.1,1.4c0,0.4-0.3,0.8-0.7,0.8c-0.1,0-0.1,0-0.2,0
		c-0.9-0.2-1.8-0.3-2.8-0.3c-6.8,0-12.6,5.1-13.4,11.9c0,0.2-0.2,0.4-0.4,0.6c-0.2,0.1-0.4,0.1-0.7,0
		C128.9,345.7,127.5,345.5,126,345.5z"></path><path class="st0" d="M278.6,369.3H241c-0.4,0-0.8-0.3-0.8-0.8s0.3-0.8,0.8-0.8h37.5c0.4,0,0.8,0.3,0.8,0.8S278.9,369.3,278.6,369.3
		L278.6,369.3z"></path></g><g id="files_1"><polygon class="st0" points="143.2,147.2 96.2,139.5 107.7,100.3 154.7,108.1 	"></polygon><rect class="st1" x="114.7" y="90.8" transform="matrix(0.4426 -0.8967 0.8967 0.4426 -28.4948 183.4448)" width="37.3" height="47.6"></rect><path class="st0" d="M146.4,142.6c-0.1,0-0.2,0-0.3-0.1l-42.7-21.1c-0.4-0.2-0.5-0.6-0.3-1l16.5-33.5c0.1-0.2,0.2-0.3,0.4-0.4
		c0.2-0.1,0.4-0.1,0.6,0l42.7,21.1c0.4,0.2,0.5,0.6,0.3,1l-16.5,33.4c-0.1,0.2-0.2,0.3-0.4,0.4C146.6,142.6,146.5,142.6,146.4,142.6
		z M104.7,120.5l41.3,20.4l15.9-32.1l-41.3-20.4L104.7,120.5z"></path><rect class="st1" x="111" y="89" transform="matrix(0.22 -0.9755 0.9755 0.22 -8.9191 214.5187)" width="37.3" height="47.6"></rect><path class="st0" d="M148.8,137h-0.2l-46.4-10.5c-0.4-0.1-0.7-0.5-0.6-0.9c0,0,0,0,0,0l8.2-36.4c0.1-0.4,0.5-0.7,0.9-0.6l46.4,10.5
		c0.2,0,0.4,0.2,0.5,0.3c0.1,0.2,0.1,0.4,0.1,0.6l-8.2,36.4c0,0.2-0.2,0.4-0.3,0.5C149.1,137,148.9,137,148.8,137z M103.3,125.2
		l45,10.2l7.9-34.9l-45-10.1L103.3,125.2z"></path><rect class="st1" x="94.9" y="92.3" transform="matrix(0.9992 -4.030618e-02 4.030618e-02 0.9992 -4.3754 4.8739)" width="47.6" height="37.3"></rect><path class="st0" d="M95.7,131.3c-0.4,0-0.7-0.3-0.8-0.7l-1.5-37.3c0-0.2,0.1-0.4,0.2-0.5c0.1-0.1,0.3-0.2,0.5-0.2l47.6-1.9
		c0.4,0,0.8,0.3,0.8,0.7c0,0,0,0,0,0l1.5,37.3c0,0.2-0.1,0.4-0.2,0.5c-0.1,0.1-0.3,0.2-0.5,0.2L95.7,131.3L95.7,131.3z M94.9,94
		l1.4,35.8l46.1-1.9L141,92.1L94.9,94z"></path><polygon class="st3" points="143.2,147.2 87.6,138.1 86.8,93.2 97.1,94.9 100.5,101 142.4,107.9 	"></polygon><path class="st0" d="M125.5,246.1c-0.4,0-0.7-0.3-0.8-0.7c0,0,0,0,0,0c-0.2-3.9-1.1-7.7-2.7-11.3c-0.2-0.4,0-0.8,0.4-1s0.8,0,1,0.4
		c1.7,3.8,2.7,7.8,2.9,11.9C126.3,245.7,126,246,125.5,246.1L125.5,246.1z M79.7,232.4c-0.4,0-0.8-0.3-0.8-0.7s0.3-0.8,0.7-0.8l0,0
		c3.9-0.4,7.8-1.3,11.5-2.7c0.4-0.1,0.8,0.1,1,0.4c0.1,0.4-0.1,0.8-0.4,1C87.8,231.1,83.9,232,79.7,232.4L79.7,232.4z M67.8,231.6
		h-0.2c-4-1-7.7-2.8-11-5.3c-0.3-0.3-0.4-0.7-0.1-1.1c0.3-0.3,0.7-0.4,1.1-0.1c3.1,2.4,6.7,4.1,10.4,5c0.4,0.1,0.7,0.5,0.6,0.9
		C68.5,231.4,68.2,231.6,67.8,231.6L67.8,231.6z M114.4,226.1c-0.1,0-0.2,0-0.3-0.1c-1.9-0.8-3.9-1.2-6-1.1l0,0
		c-1.8,0-3.6,0.2-5.3,0.6c-0.4,0.1-0.8-0.2-0.9-0.6c-0.1-0.4,0.2-0.8,0.5-0.9c1.9-0.4,3.8-0.7,5.7-0.7l0,0c2.2,0,4.5,0.4,6.5,1.2
		c0.4,0.2,0.5,0.6,0.4,1C114.9,225.9,114.7,226.1,114.4,226.1L114.4,226.1z M49.8,217.1c-0.3,0-0.6-0.2-0.7-0.5
		c-1-2.4-1.6-5-1.6-7.7c0-1.5,0.2-3.1,0.6-4.6c0.1-0.4,0.5-0.6,0.9-0.5c0.4,0.1,0.6,0.5,0.5,0.9c-0.4,1.4-0.5,2.8-0.5,4.2
		c0,2.4,0.5,4.9,1.5,7.1c0.2,0.4,0,0.8-0.4,1c0,0,0,0,0,0C50,217.1,49.9,217.1,49.8,217.1L49.8,217.1z M54.9,195.1
		c-0.2,0-0.4-0.1-0.5-0.2c-0.3-0.3-0.4-0.7-0.1-1.1c2.6-3.1,5.6-5.9,8.9-8.3c0.3-0.2,0.8-0.2,1,0.2s0.2,0.8-0.2,1.1l0,0
		c-3.2,2.3-6.1,5-8.6,8C55.4,195,55.2,195.1,54.9,195.1L54.9,195.1z M74.2,181.3c-0.4,0-0.8-0.3-0.8-0.7c0-0.3,0.2-0.6,0.5-0.7
		c3.8-1.4,7.7-2.5,11.7-3.2c0.4-0.1,0.8,0.1,0.9,0.5c0.1,0.4-0.1,0.8-0.5,0.9c0,0-0.1,0-0.1,0c-3.9,0.7-7.7,1.7-11.4,3.1
		C74.4,181.3,74.3,181.3,74.2,181.3z M133.6,178.3L133.6,178.3c-2.1-0.1-4.4-0.2-6.7-0.4c-1.8-0.2-3.6-0.3-5.3-0.5
		c-0.4,0-0.7-0.4-0.7-0.8c0-0.4,0.4-0.7,0.8-0.7c1.7,0.1,3.5,0.3,5.3,0.5c2.3,0.2,4.5,0.4,6.6,0.4c0.4,0,0.7,0.4,0.7,0.8
		c0,0,0,0,0,0C134.4,178,134,178.3,133.6,178.3L133.6,178.3z M145.5,177.4c-0.4,0-0.8-0.3-0.8-0.7c0-0.4,0.3-0.7,0.6-0.8
		c4.4-0.9,7.9-2.5,10.4-4.8c0.3-0.3,0.8-0.3,1.1,0c0.3,0.3,0.3,0.8,0,1.1c-2.6,2.5-6.4,4.2-11.1,5.2L145.5,177.4z M97.7,176.8
		c-0.4,0-0.8-0.3-0.8-0.8s0.3-0.8,0.8-0.8c3.7-0.2,7.8-0.2,12.1-0.1c0.4,0,0.8,0.3,0.8,0.8s-0.3,0.8-0.8,0.8l0,0
		c-4.2-0.1-8.3-0.1-11.9,0.1H97.7z M160.9,161.7L160.9,161.7c-0.4,0-0.7-0.4-0.7-0.8c0,0,0,0,0,0c0-0.3,0-0.5,0-0.8
		c-0.1-3.6-0.8-7.2-2.2-10.6c-0.2-0.4,0-0.8,0.4-1c0.4-0.2,0.8,0,1,0.4c0,0,0,0.1,0,0.1c1.4,3.6,2.1,7.3,2.2,11.2c0,0.3,0,0.6,0,0.9
		C161.6,161.4,161.3,161.7,160.9,161.7C160.9,161.7,160.9,161.7,160.9,161.7L160.9,161.7z"></path></g><g id="paper_plane"><polygon class="st0" points="372.8,123.7 364.9,137.2 406.1,106.3 	"></polygon><path class="st0" d="M364.9,137.9c-0.4,0-0.7-0.3-0.7-0.7c0-0.1,0-0.3,0.1-0.4l7.9-13.5c0.1-0.1,0.2-0.2,0.3-0.3l33.4-17.4
		c0.4-0.2,0.8,0,1,0.3c0.2,0.3,0.1,0.7-0.2,1l-41.3,30.8C365.2,137.9,365.1,137.9,364.9,137.9z M373.3,124.3l-5.9,10.1l30.9-23.1
		L373.3,124.3z"></path><polygon class="st1" points="372.8,123.7 355.1,115.8 406.1,106.3 381.7,137.3 	"></polygon><path class="st0" d="M381.7,138L381.7,138c-0.2,0-0.5-0.1-0.6-0.3l-8.8-13.4l-17.5-7.8c-0.4-0.2-0.5-0.6-0.4-1
		c0.1-0.2,0.3-0.4,0.5-0.4l51.1-9.5c0.4-0.1,0.8,0.2,0.9,0.6c0,0.2,0,0.4-0.1,0.6l-24.5,31C382.1,137.9,381.9,138,381.7,138z
		 M357.6,116.1l15.5,6.9c0.1,0.1,0.2,0.2,0.3,0.3l8.4,12.7l22.6-28.6L357.6,116.1z"></path><line class="st2" x1="406.1" y1="106.3" x2="372.8" y2="123.7"></line><path class="st0" d="M372.8,124.5c-0.4,0-0.8-0.3-0.8-0.7c0-0.3,0.2-0.6,0.4-0.7l33.4-17.4c0.4-0.2,0.8-0.1,1,0.3
		c0.2,0.4,0.1,0.8-0.3,1c0,0,0,0-0.1,0l-33.4,17.4C373,124.4,372.9,124.5,372.8,124.5z"></path></g><g id="files_2"><polygon class="st0" points="140.4,374.2 93.9,374.2 98.8,334.6 145.3,334.6 	"></polygon><rect class="st1" x="94.9" y="327.7" width="46.5" height="36.5"></rect><path class="st0" d="M141.4,364.9H94.9c-0.4,0-0.7-0.3-0.8-0.8v-36.5c0-0.4,0.3-0.8,0.8-0.8h46.5c0.4,0,0.7,0.3,0.8,0.7
		c0,0,0,0,0,0v36.5C142.1,364.6,141.8,364.9,141.4,364.9z M95.6,363.4h45v-35h-45V363.4z"></path><rect class="st1" x="91.9" y="327.7" width="46.5" height="36.5"></rect><path class="st0" d="M138.5,364.9H91.9c-0.4,0-0.8-0.3-0.8-0.8v-36.5c0-0.4,0.3-0.7,0.7-0.8c0,0,0,0,0,0h46.5
		c0.4,0,0.8,0.3,0.8,0.8v36.5C139.2,364.6,138.9,364.9,138.5,364.9z M92.7,363.4h45v-35h-45V363.4z"></path><rect class="st1" x="89" y="327.7" width="46.5" height="36.5"></rect><path class="st0" d="M135.5,364.9H89c-0.4,0-0.7-0.3-0.8-0.8v-36.5c0-0.4,0.3-0.8,0.8-0.8h46.5c0.4,0,0.8,0.3,0.8,0.8v36.5
		C136.3,364.6,136,364.9,135.5,364.9z M89.7,363.4h45v-35h-45L89.7,363.4z"></path><polygon class="st3" points="140.4,374.2 85.3,374.2 77.4,331 87.6,331 91.9,336.4 133.5,336.4 	"></polygon><polygon class="st0" points="378.4,374.9 331.9,374.9 336.7,335.3 383.3,335.3 	"></polygon><rect class="st1" x="332.8" y="328.4" width="46.5" height="36.5"></rect><path class="st0" d="M379.4,365.6h-46.5c-0.4,0-0.7-0.3-0.8-0.8v-36.5c0-0.4,0.3-0.7,0.8-0.8h46.5c0.4,0,0.8,0.3,0.8,0.8v36.5
		C380.1,365.3,379.8,365.6,379.4,365.6z M333.6,364.1h45v-35h-45V364.1z"></path><rect class="st1" x="329.9" y="328.4" width="46.5" height="36.5"></rect><path class="st0" d="M376.4,365.6h-46.5c-0.4,0-0.8-0.3-0.8-0.8v-36.5c0-0.4,0.3-0.8,0.8-0.8h46.5c0.4,0,0.7,0.3,0.8,0.8v36.5
		C377.2,365.3,376.8,365.6,376.4,365.6z M330.6,364.1h45v-35h-45V364.1z"></path><rect class="st1" x="327" y="328.4" width="46.5" height="36.5"></rect><path class="st0" d="M373.5,365.6H327c-0.4,0-0.7-0.3-0.8-0.8v-36.5c0-0.4,0.3-0.7,0.8-0.8h46.5c0.4,0,0.8,0.3,0.8,0.8v36.5
		C374.3,365.3,373.9,365.6,373.5,365.6C373.5,365.6,373.5,365.6,373.5,365.6z M327.7,364.1h45v-35h-45V364.1z"></path><polygon class="st3" points="378.4,374.9 323.3,374.9 315.4,331.7 325.6,331.7 329.9,337.1 371.4,337.1 	"></polygon></g><g id="front_cloud"><path class="st0" d="M245.5,395.4h-72.6c-0.4,0-0.8-0.3-0.8-0.8s0.3-0.8,0.8-0.8h72.6c0.4,0,0.8,0.3,0.8,0.8
		S245.9,395.4,245.5,395.4L245.5,395.4L245.5,395.4z"></path><path class="st0" d="M305.8,390.5H291c-0.4,0-0.8-0.3-0.8-0.8s0.3-0.8,0.8-0.8h14.8c0.4,0,0.8,0.3,0.8,0.8S306.2,390.5,305.8,390.5
		L305.8,390.5z"></path><path class="st1" d="M73.3,384.7c0,3.8,1.3,7.4,3.7,10.4h95.1c0.3-0.1,0.6-0.3,0.8-0.5c9.6-5.8,12.7-18.2,7-27.8
		c-3.7-6.1-10.3-9.9-17.4-9.8h-0.2c-1.4-7.2-8.3-11.9-15.4-10.5c-2.1,0.4-4.1,1.3-5.7,2.6c-0.9,0.7-1.7,1.5-2.3,2.4
		c-0.6-1.1-1.4-2.1-2.2-3.1c-7.2-8.2-19.6-9.1-27.8-1.9c-3,2.6-5.1,6.1-6.1,9.9c-0.1,0.4-0.2,0.7-0.3,1.1c-4.7-1.4-9.6,1.3-11,6
		c-0.2,0.8-0.4,1.6-0.4,2.5c0,0.8,0.1,1.6,0.3,2.4c-0.5-0.1-1-0.1-1.5-0.1c-1.1,0-2.2,0.1-3.3,0.4C78.8,370.1,73.3,376.9,73.3,384.7
		z"></path><path class="st0" d="M172.1,395.9H77c-0.2,0-0.4-0.1-0.6-0.3c-6-7.4-4.9-18.3,2.6-24.3c3.2-2.6,7.3-4,11.4-3.8
		c-0.1-0.5-0.1-1.1-0.1-1.6c0-5.3,4.3-9.6,9.6-9.6c0.6,0,1.3,0.1,1.9,0.2c0-0.1,0.1-0.2,0.1-0.4c2.9-10.9,14.1-17.5,25-14.6
		c4,1,7.5,3.2,10.2,6.3c0.6,0.7,1.2,1.5,1.7,2.3c5.2-5.7,14-6.2,19.8-1c2.1,1.9,3.6,4.4,4.2,7.1c11.6,0.2,20.9,9.7,20.7,21.3
		c-0.1,7.3-4,13.9-10.2,17.7c-0.3,0.2-0.6,0.3-0.9,0.5C172.4,395.8,172.2,395.9,172.1,395.9z M77.4,394.4h94.5
		c0.2-0.1,0.4-0.2,0.6-0.4c9.2-5.6,12.2-17.6,6.6-26.8c-3.5-5.8-9.9-9.4-16.7-9.4h-0.2c-0.4,0-0.7-0.3-0.7-0.6
		c-1.3-6.8-7.8-11.2-14.6-10c-2,0.4-3.8,1.2-5.4,2.5c-0.8,0.6-1.5,1.4-2.2,2.2c-0.1,0.2-0.4,0.3-0.6,0.3c-0.3,0-0.5-0.2-0.6-0.4
		c-0.6-1.1-1.3-2.1-2.1-3c-6.9-7.9-18.9-8.7-26.8-1.8c-2.8,2.5-4.9,5.8-5.8,9.4c-0.1,0.3-0.2,0.7-0.2,1c0,0.2-0.2,0.4-0.4,0.5
		c-0.2,0.1-0.4,0.2-0.6,0.1c-4.3-1.2-8.8,1.2-10,5.5c-0.2,0.7-0.3,1.5-0.3,2.2c0,0.7,0.1,1.5,0.3,2.2c0.1,0.4-0.1,0.8-0.5,0.9
		c-0.1,0-0.2,0-0.3,0c-1.5-0.1-3.1-0.1-4.6,0.3c-8.5,1.7-14,10.1-12.3,18.6C74.9,390.3,75.9,392.5,77.4,394.4L77.4,394.4z"></path><path class="st1" d="M450.7,371.4c0.1,7.9-3.8,15.3-10.4,19.6c-0.8,0.6-1.8,0.9-2.8,0.9l-118.7,0.6c-1.9,0-3.7-1-4.6-2.7
		c-1.5-2.9-2.3-6.2-2.4-9.5c-0.1-11.5,9.2-20.9,20.7-21c4.1,0,8,1.1,11.4,3.3c2.7-8.5,10.6-14.4,19.5-14.4
		c-0.1-17.5,14-31.9,31.6-32c17.5-0.1,31.9,14,32,31.6C440,347.8,450.6,358.3,450.7,371.4z"></path><path class="st0" d="M318.7,393.2c-2.2,0-4.2-1.2-5.2-3.1c-5.5-10.6-1.3-23.6,9.3-29.1c6.5-3.4,14.3-3.2,20.7,0.5
		c2.9-8.1,10.5-13.7,19.2-14c0.3-17.7,14.7-31.8,32.3-31.9h0.2c17.6,0,32,14,32.5,31.6c13.1,0.3,23.7,11,23.7,24.2l0,0
		c0,8.1-4,15.7-10.7,20.2c-1,0.6-2.1,1-3.2,1L318.7,393.2L318.7,393.2z M332.6,360.1h-0.1c-11.1,0-20,9-20,20.1
		c0,3.2,0.8,6.4,2.3,9.2c0.8,1.4,2.3,2.3,3.9,2.3l0,0l118.7-0.6c0.9,0,1.7-0.3,2.4-0.7c6.3-4.2,10.1-11.4,10-19l0,0
		c-0.1-12.6-10.3-22.7-22.8-22.7H427c-0.4,0-0.7-0.3-0.7-0.7c0,0,0,0,0,0c-0.1-17-14-30.8-31-30.8h-0.2c-17.1,0.1-30.9,14-30.8,31.2
		c0,0,0,0,0,0c0,0.4-0.3,0.8-0.8,0.8c-8.6,0-16.2,5.6-18.8,13.9c-0.1,0.2-0.2,0.4-0.5,0.5c-0.2,0.1-0.5,0.1-0.7-0.1
		C340.3,361.2,336.5,360.1,332.6,360.1z"></path></g></svg>